<?xml version="1.0" encoding="UTF-8"?><svg id="a" xmlns="http://www.w3.org/2000/svg" viewBox="0 0 197.65 198.68"><defs><style>.b{fill:#424140;}</style></defs><path class="b" d="M194.03,177.05l-38.83-39.74c10.65-14.33,16.95-32.06,16.95-51.24C172.15,38.61,133.54,0,86.07,0S0,38.61,0,86.07s38.61,86.07,86.07,86.07c19.12,0,36.8-6.27,51.1-16.85l38.65,39.55c2.49,2.55,5.8,3.83,9.11,3.83s6.42-1.21,8.9-3.62c5.03-4.91,5.12-12.97,.21-18ZM24.71,86.07c0-33.84,27.53-61.36,61.36-61.36s61.36,27.53,61.36,61.36-27.53,61.36-61.36,61.36-61.36-27.53-61.36-61.36Z"/></svg>