<?xml version="1.0" encoding="UTF-8"?><svg id="a" xmlns="http://www.w3.org/2000/svg" viewBox="0 0 176.21 197.65"><defs><style>.b{fill:#4751fd;}</style></defs><path class="b" d="M138.01,197.65H38.21c-21.07,0-38.21-17.14-38.21-38.21V59.64C0,38.57,17.14,21.43,38.21,21.43h99.8c21.07,0,38.21,17.14,38.21,38.21v99.8c0,21.07-17.14,38.21-38.21,38.21ZM38.21,38.98c-11.39,0-20.66,9.27-20.66,20.66v99.8c0,11.39,9.27,20.66,20.66,20.66h99.8c11.39,0,20.66-9.27,20.66-20.66V59.64c0-11.39-9.27-20.66-20.66-20.66H38.21Z"/><path class="b" d="M47.04,57.89c-4.85,0-8.77-3.92-8.77-8.77V8.77c0-4.85,3.92-8.77,8.77-8.77s8.77,3.92,8.77,8.77V49.12c0,4.85-3.92,8.77-8.77,8.77Z"/><path class="b" d="M127.32,57.89c-4.85,0-8.77-3.92-8.77-8.77V8.77c0-4.85,3.92-8.77,8.77-8.77s8.77,3.92,8.77,8.77V49.12c0,4.85-3.92,8.77-8.77,8.77Z"/><path class="b" d="M167.44,97.4H8.77c-4.85,0-8.77-3.92-8.77-8.77s3.92-8.77,8.77-8.77H167.44c4.85,0,8.77,3.92,8.77,8.77s-3.92,8.77-8.77,8.77Z"/></svg>