<?xml version="1.0" encoding="UTF-8"?><svg id="a" xmlns="http://www.w3.org/2000/svg" xmlns:xlink="http://www.w3.org/1999/xlink" viewBox="0 0 198.41 198.41"><defs><style>.c{fill:#fff;}.d{fill:url(#b);}</style><linearGradient id="b" x1="0" y1="99.2" x2="198.41" y2="99.2" gradientTransform="matrix(1, 0, 0, 1, 0, 0)" gradientUnits="userSpaceOnUse"><stop offset="0" stop-color="#396afc"/><stop offset=".38" stop-color="#3460fc"/><stop offset=".99" stop-color="#2948ff"/></linearGradient></defs><rect class="d" y="0" width="198.41" height="198.41" rx="54.04" ry="54.04"/><g><path class="c" d="M99.2,56.91c-34.33,0-62.26,27.93-62.26,62.26,0,45.04,46.86,45.04,62.26,45.04s62.26,0,62.26-45.04c0-34.33-27.93-62.26-62.26-62.26Zm0,92.65c-41.95,0-47.61-15.36-47.61-30.39,0-26.25,21.36-47.61,47.61-47.61s47.61,21.36,47.61,47.61c0,15.03-5.66,30.39-47.61,30.39Z"/><path class="c" d="M121.01,127.85l-15.72-10.87v-28.65c0-3.36-2.72-6.08-6.08-6.08s-6.08,2.72-6.08,6.08v31.77h0v.07c0,.13,.03,.25,.04,.38,.02,.26,.03,.52,.08,.78,.04,.19,.1,.38,.16,.56,.06,.19,.1,.38,.18,.57,.08,.19,.18,.36,.27,.53,.09,.17,.17,.35,.28,.52,.11,.17,.24,.32,.37,.47,.12,.15,.23,.31,.37,.45,.18,.19,.39,.35,.6,.51,.1,.08,.18,.17,.29,.24l.06,.04h0l18.29,12.64c1.06,.73,2.26,1.08,3.45,1.08,1.93,0,3.83-.92,5.01-2.62,1.91-2.76,1.22-6.55-1.55-8.46Z"/><path class="c" d="M170.37,61c-.94-12.71-12.71-25.08-25.36-26.58-7.44-.88-14.4,1.05-19.96,4.88-6.43,4.44-5.14,14.49,2.26,17,4.59,1.56,9.31,3.94,13.82,7.13,4.61,3.26,8.49,7,11.52,10.9,4.72,6.08,14.61,4.16,16.71-3.24,.9-3.18,1.27-6.57,1.01-10.1Z"/><path class="c" d="M45.77,74.33c3.03-3.9,6.91-7.64,11.52-10.9,4.51-3.19,9.22-5.57,13.82-7.13,7.4-2.51,8.69-12.57,2.26-17-5.56-3.83-12.52-5.77-19.96-4.88-12.65,1.5-24.42,13.88-25.36,26.58-.26,3.52,.11,6.92,1.01,10.1,2.1,7.4,11.99,9.32,16.71,3.24Z"/></g></svg>