<?xml version="1.0" encoding="UTF-8"?><svg id="a" xmlns="http://www.w3.org/2000/svg" viewBox="0 0 167.45 197.65"><defs><style>.b{fill:#e2574c;}.c{fill:#3cbde5;}.d{fill:#bf392c;}.e{fill:#a9f7ff;}.f{fill:#39d4fa;}</style></defs><g><polygon class="d" points="167.45 0 111.25 0 56.95 81.91 112.2 81.91 167.45 0"/><polygon class="b" points="0 0 56.19 0 110.5 81.91 55.25 81.91 0 0"/><circle class="f" cx="86.92" cy="130.56" r="67.08"/><path class="c" d="M86.92,179.46c-26.96,0-48.9-21.94-48.9-48.9s21.93-48.89,48.9-48.89,48.89,21.93,48.89,48.89-21.93,48.9-48.89,48.9Zm0-87.14c-21.09,0-38.25,17.16-38.25,38.25s17.16,38.25,38.25,38.25,38.25-17.16,38.25-38.25-17.16-38.25-38.25-38.25Z"/></g><path class="e" d="M72.75,108.56h14.35c9.02,0,16.44,3.19,16.44,13.31s-7.54,14.02-16.17,14.02h-4.79v13.58h-9.84v-40.91Zm14.13,19.58c4.79,0,7.09-2.26,7.09-6.27s-2.64-5.55-7.37-5.55h-4.01v11.82h4.29Z"/></svg>