<?xml version="1.0" encoding="UTF-8"?><svg id="a" xmlns="http://www.w3.org/2000/svg" xmlns:xlink="http://www.w3.org/1999/xlink" viewBox="0 0 198.41 78"><defs><style>.c{fill:#fff;}.d{fill:url(#b);}</style><linearGradient id="b" x1="0" y1="39" x2="198.41" y2="39" gradientTransform="matrix(1, 0, 0, 1, 0, 0)" gradientUnits="userSpaceOnUse"><stop offset="0" stop-color="#e7f2f3"/><stop offset=".22" stop-color="#cbd8dd"/><stop offset=".55" stop-color="#aab8c1"/><stop offset=".82" stop-color="#95a5b1"/><stop offset=".99" stop-color="#8e9eab"/></linearGradient></defs><rect class="d" width="198.41" height="78" rx="11.44" ry="11.44"/><g><path class="c" d="M85.85,38.73c-4.09-1.21-6.86-3.7-8.46-6.82-1.64,3.39-4.56,6.12-8.77,7.41l-2.49-4.02c5.96-1.83,8.57-6.35,8.57-10.72v-2.69h5.22v2.69c0,4.25,2.57,8.42,8.38,10.13l-2.46,4.02Zm11.15,13.96v3.97h-24.79v-9.86h18.79v-2.1h-18.83v-3.94h23.93v9.71h-18.79v2.22h19.68Zm-.93-13.53h-5.15V21.07h5.15v18.09Z"/><path class="c" d="M132.28,20.99V57.01h-5.14v-19.26h-6.43v10.8h-17.23V23.84h5.11v8.65h7.05v-8.65h5.07v9.78h6.43v-12.63h5.14Zm-16.64,15.51h-7.05v7.95h7.05v-7.95Z"/></g></svg>