<?xml version="1.0" encoding="UTF-8"?><svg id="a" xmlns="http://www.w3.org/2000/svg" viewBox="0 0 185.38 197.65"><defs><style>.b{fill:#444;}</style></defs><path class="b" d="M170.06,112.58c-3.47-3.16-3.34-9.73-3.34-9.73l-.12,.21c.08-1.41,.21-2.8,.21-4.23,0-1.35-.13-2.66-.2-3.99l.12,.21s-.11-6.57,3.38-9.72,13.58-10.93,14.94-14.65c1.37-3.72-1.61-11.78-6.68-21.09-5.5-9.06-10.96-15.7-14.86-16.39-3.9-.69-15.7,4.12-20.18,5.54s-10.1-1.98-10.1-1.98l.05,.09c-2.29-1.5-4.68-2.85-7.14-4.1h.16s-5.75-3.18-6.75-7.77c-1-4.59-2.71-17.22-5.25-20.26-2.54-3.04-11.01-4.47-21.61-4.72-10.6,.25-19.07,1.68-21.61,4.72-2.54,3.04-4.25,15.67-5.25,20.26s-6.75,7.77-6.75,7.77h.16c-2.46,1.25-4.85,2.6-7.13,4.1l.05-.09s-5.62,3.4-10.1,1.98-16.28-6.23-20.18-5.54c-3.9,.69-9.36,7.32-14.86,16.39C1.95,58.89-1.04,66.95,.33,70.67c1.37,3.72,11.46,11.5,14.94,14.65s3.38,9.72,3.38,9.72l.12-.21c-.07,1.33-.2,2.65-.2,3.99,0,1.43,.13,2.82,.21,4.23l-.12-.21s.13,6.57-3.34,9.73c-3.47,3.16-13.54,10.98-14.9,14.7-1.36,3.72,1.65,11.77,6.75,21.07,5.53,9.05,11.01,15.66,14.91,16.34,3.9,.68,15.69-4.17,20.16-5.61,4.47-1.44,10.11,1.94,10.11,1.94l-.06-.11c2.23,1.45,4.55,2.77,6.94,3.98h-.16s5.75,3.18,6.75,7.77,2.71,17.22,5.25,20.26c2.54,3.04,11.01,4.47,21.61,4.72,10.6-.25,19.07-1.68,21.61-4.72,2.54-3.04,4.25-15.67,5.25-20.26,1-4.59,6.75-7.77,6.75-7.77h-.16c2.39-1.21,4.71-2.53,6.94-3.98l-.06,.11s5.63-3.38,10.11-1.94c4.47,1.44,16.26,6.28,20.16,5.61,3.9-.68,9.39-7.29,14.91-16.34,5.09-9.3,8.1-17.34,6.75-21.07s-11.43-11.53-14.9-14.7Zm-77.37,17.63c-17.33,0-31.39-14.05-31.39-31.39s14.05-31.39,31.39-31.39,31.39,14.05,31.39,31.39-14.05,31.39-31.39,31.39Z"/></svg>