<?xml version="1.0" encoding="UTF-8"?><svg id="a" xmlns="http://www.w3.org/2000/svg" viewBox="0 0 197.64 197.65"><path d="M98.82,0C44.33,0,0,44.33,0,98.82s44.33,98.82,98.82,98.82,98.82-44.33,98.82-98.82S153.31,0,98.82,0ZM51.31,172.57c-.12-.99-.18-1.99-.18-2.99,0-19.08,21.4-34.6,47.7-34.6s47.7,15.52,47.7,34.6c0,1-.08,2-.2,3-13.7,8.86-30.01,14.02-47.5,14.02s-33.81-5.17-47.52-14.03Zm105.86-8.24c-2.4-16.2-15.75-29.83-34.14-36.32,12.86-8.08,21.44-22.39,21.44-38.67,0-25.17-20.47-45.64-45.64-45.64s-45.64,20.47-45.64,45.64c0,16.28,8.57,30.59,21.44,38.67-18.39,6.49-31.74,20.12-34.14,36.32-18.04-16.09-29.43-39.49-29.43-65.5C11.05,50.42,50.42,11.05,98.82,11.05s87.78,39.38,87.78,87.78c0,26.02-11.39,49.42-29.43,65.5Zm-58.35-40.39c-19.08,0-34.6-15.52-34.6-34.6s15.52-34.6,34.6-34.6,34.6,15.52,34.6,34.6-15.52,34.6-34.6,34.6Z"/></svg>