<?xml version="1.0" encoding="UTF-8"?><svg id="a" xmlns="http://www.w3.org/2000/svg" viewBox="0 0 167.45 197.65"><defs><style>.b{fill:#e2574c;}.c{fill:#fff;}.d{fill:#bf392c;}.e{fill:#cdcfcf;}.f{fill:#e4e7e7;}</style></defs><g><polygon class="d" points="167.45 0 111.25 0 56.95 81.91 112.2 81.91 167.45 0"/><polygon class="b" points="0 0 56.19 0 110.5 81.91 55.25 81.91 0 0"/><circle class="f" cx="86.92" cy="130.56" r="67.08"/><path class="e" d="M86.92,179.46c-26.96,0-48.89-21.94-48.89-48.9s21.93-48.89,48.89-48.89,48.9,21.93,48.9,48.89-21.93,48.9-48.9,48.9Zm0-87.14c-21.09,0-38.25,17.16-38.25,38.25s17.16,38.25,38.25,38.25,38.25-17.16,38.25-38.25-17.16-38.25-38.25-38.25Z"/></g><path class="c" d="M71.49,144.36l5.55-6.76c2.91,2.47,6.71,4.18,9.95,4.18,3.63,0,5.33-1.37,5.33-3.57,0-2.37-2.25-3.14-5.77-4.62l-5.22-2.2c-4.29-1.71-8.3-5.28-8.3-11.22,0-6.87,6.16-12.37,14.85-12.37,4.73,0,9.73,1.81,13.31,5.39l-4.89,6.16c-2.69-2.04-5.22-3.13-8.41-3.13-3.02,0-4.89,1.21-4.89,3.41s2.58,3.14,6.21,4.57l5.11,2.04c5.06,2.03,8.08,5.44,8.08,11.22,0,6.82-5.72,12.81-15.62,12.81-5.33,0-11.05-1.98-15.29-5.88Z"/></svg>