<?xml version="1.0" encoding="UTF-8"?><svg id="a" xmlns="http://www.w3.org/2000/svg" xmlns:xlink="http://www.w3.org/1999/xlink" viewBox="0 0 198.41 78"><defs><style>.c{fill:#fff;}.d{fill:url(#b);}</style><linearGradient id="b" x1="0" y1="39" x2="198.41" y2="39" gradientTransform="matrix(1, 0, 0, 1, 0, 0)" gradientUnits="userSpaceOnUse"><stop offset="0" stop-color="#36d1dc"/><stop offset=".21" stop-color="#3ac7dd"/><stop offset=".56" stop-color="#47aee0"/><stop offset=".99" stop-color="#5b86e5"/></linearGradient></defs><rect class="d" width="198.41" height="78" rx="11.44" ry="11.44"/><g><path class="c" d="M62.83,36.1v4.05H30.4v-4.05H62.83Zm-25.02-10.25h-4.56v-3.82h26.7v3.82h-4.56v4.6h4.29v3.82h-26.19v-3.82h4.33v-4.6Zm1.44,27.13h20.58v3.7h-25.68v-9.08h19.68v-1.75h-19.72v-3.7h24.79v8.89h-19.65v1.95Zm11.03-27.13h-7.37v4.6h7.37v-4.6Z"/><path class="c" d="M72.23,44.79c3.28-.08,6.39-.27,9.98-.82l.39,4.17c-4.6,.74-8.5,.86-12.82,.86h-2.53v-14.62h8.58v-5.73h-8.61v-4.13h13.56v13.91h-8.54v6.35Zm24.83-23.78V56.91h-4.87v-18.2h-3.23v16.53h-4.79V21.67h4.79v12.9h3.23v-13.57h4.87Z"/><path class="c" d="M109.18,44.71c5.34-.04,9.67-.23,14.58-.97l.47,4.09c-5.61,.86-10.64,1.01-17.07,1.01h-3.12V24.01h18.16v4.17h-13.02v5.85h11.54v4.02h-11.54v6.66Zm22.84-23.66V56.99h-5.18V21.05h5.18Z"/><path class="c" d="M159.27,38.82c-5.65,1.13-11.03,1.44-16.33,1.44h-3V22.92h5.11v13.06c4.44-.12,8.93-.47,13.64-1.4l.59,4.25Zm-15.09,4.25h23.82v13.45h-23.82v-13.45Zm5.03,9.43h13.76v-5.42h-13.76v5.42Zm18.79-31.5v20.5h-5.15v-10.33h-8.69v-4.17h8.69v-6h5.15Z"/></g></svg>