<?xml version="1.0" encoding="UTF-8"?><svg id="a" xmlns="http://www.w3.org/2000/svg" xmlns:xlink="http://www.w3.org/1999/xlink" viewBox="0 0 198.41 78"><defs><style>.c{fill:#fff;}.d{fill:url(#b);}</style><linearGradient id="b" x1="0" y1="39" x2="198.41" y2="39" gradientTransform="matrix(1, 0, 0, 1, 0, 0)" gradientUnits="userSpaceOnUse"><stop offset="0" stop-color="#ffd194"/><stop offset=".13" stop-color="#f9ca8a"/><stop offset=".34" stop-color="#eab871"/><stop offset=".61" stop-color="#d39a47"/><stop offset=".92" stop-color="#b2710e"/><stop offset=".99" stop-color="#aa6700"/></linearGradient></defs><rect class="d" width="198.41" height="78" rx="11.44" ry="11.44"/><g><path class="c" d="M79.6,47.98v4.21H47.09v-4.21h32.51Zm-23.97-25.1v5.81h15.36v-5.81h5.07v19.14h-25.53V22.88h5.11Zm0,15.05h15.36v-5.22h-15.36v5.22Z"/><path class="c" d="M115.46,40.42v4.09h-32.51v-4.09h13.68v-2.73h-9.63v-10.02h19.41v-2.45h-19.49v-3.9h24.56v9.98h-19.41v2.49h20.07v3.9h-10.37v2.73h13.68Zm-23.27,12.16h20.11v4.09h-25.26v-10.37h5.14v6.28Z"/><path class="c" d="M151.32,47.98v4.17h-32.51v-4.17h32.51Zm-31.22-9.28c7.91-1.25,12.16-6.12,12.2-11.07h-10.8v-4.06h27.05v4.06h-10.8c.04,4.95,4.29,9.71,12.39,10.91l-1.95,4.06c-6.31-1.09-10.88-4.17-13.14-8.34-2.26,4.25-6.74,7.41-12.98,8.54l-1.99-4.09Z"/></g></svg>