<?xml version="1.0" encoding="UTF-8"?><svg id="a" xmlns="http://www.w3.org/2000/svg" xmlns:xlink="http://www.w3.org/1999/xlink" viewBox="0 0 198.41 78"><defs><style>.c{fill:#fff;}.d{fill:url(#b);}</style><linearGradient id="b" x1="0" y1="39" x2="198.41" y2="39" gradientTransform="matrix(1, 0, 0, 1, 0, 0)" gradientUnits="userSpaceOnUse"><stop offset="0" stop-color="#f2c94c"/><stop offset=".29" stop-color="#f2bf4b"/><stop offset=".78" stop-color="#f2a64a"/><stop offset=".99" stop-color="#f2994a"/></linearGradient></defs><rect class="d" width="198.41" height="78" rx="11.44" ry="11.44"/><g><path class="c" d="M97.37,34.01v4.02h-32.31v-4.02h11.97v-5.18h5.14v5.18h15.2Zm-23.58,18.17h20.7v3.97h-25.84v-9.82h19.8v-2.18h-19.84v-3.97h24.98v9.66h-19.8v2.34Zm14.03-20.08c.43-2.49,.55-4.48,.58-6.24h-19.72v-4.01h24.87v2.1c0,2.14,0,5.03-.66,8.57l-5.07-.43Z"/><path class="c" d="M133.35,47.92v4.21h-32.51v-4.21h32.51Zm-3.47-6.74h-25.26V23.49h24.98v4.17h-19.84v9.43h20.11v4.09Z"/></g></svg>