<?xml version="1.0" encoding="UTF-8"?><svg id="a" xmlns="http://www.w3.org/2000/svg" viewBox="0 0 198.41 78.47"><defs><style>.b{fill:#fff;}.c{fill:#f93232;}</style></defs><rect class="c" width="198.41" height="78.47" rx="10.84" ry="10.84"/><g><path class="b" d="M47,23.47c0,10.9-3.49,19.92-15.96,26.16l-2.75-4c9.02-4.55,12.74-10.16,13.45-18.04h-11.73v-4.12h16.98Zm11.92-3.72V55.86h-5.18v-18.08h-6.98v-4.2h6.98v-13.84h5.18Z"/><path class="b" d="M70.81,43.62c3.29-.08,6.43-.27,10.04-.82l.39,4.19c-4.63,.75-8.55,.86-12.9,.86h-2.55v-14.7h8.63v-5.77h-8.67v-4.16h13.65v14h-8.59v6.39Zm24.98-23.92V55.82h-4.9v-18.31h-3.25v16.63h-4.82V20.37h4.82v12.98h3.25v-13.65h4.9Z"/><path class="b" d="M122.77,41.11c-7.29,1.37-15.41,1.49-21.37,1.49l-.63-4.12c2.47,0,5.33,0,8.31-.08v-2.78c-3.84-.82-6.43-3.53-6.43-7.1,0-4.31,3.76-7.33,8.98-7.33s9.02,3.02,9.02,7.33c0,3.53-2.55,6.23-6.39,7.1v2.59c2.78-.16,5.61-.35,8.2-.75l.31,3.65Zm-12.12,10h20.08v4.12h-25.25v-10.27h5.18v6.16Zm.98-19.14c2.47,0,4.23-1.25,4.23-3.45s-1.76-3.45-4.23-3.45-4.16,1.25-4.16,3.45,1.69,3.45,4.16,3.45Zm22.43-.9v4.27h-4.55v11.96h-5.18V19.74h5.18v11.33h4.55Z"/><path class="b" d="M169.68,47.66v4.24h-32.74v-4.24h8.31v-5.49h-4.51v-12.16h20.16v-3.84h-20.2v-4.12h25.29v12h-20.12v3.96h20.94v4.16h-5.06v5.49h7.92Zm-19.33,0h6.31v-5.49h-6.31v5.49Z"/></g></svg>