<?xml version="1.0" encoding="UTF-8"?><svg id="a" xmlns="http://www.w3.org/2000/svg" viewBox="0 0 198.41 78.47"><defs><style>.b{fill:#fff;}.c{fill:#4751fd;}</style></defs><rect class="c" width="198.41" height="78.47" rx="10.84" ry="10.84"/><g><path class="b" d="M65.46,20.33h4.82V54.21h-4.82v-11.18h-4.12c-1.33,3.49-3.65,5.49-6.63,5.49-4.82,0-7.84-4.94-7.84-13.14s3.02-13.1,7.84-13.1c2.94,0,5.25,1.92,6.59,5.41h4.16v-7.37Zm-7.57,15.06c0-5.53-1.18-8.23-3.18-8.23s-3.22,2.71-3.22,8.23,1.18,8.27,3.22,8.27,3.18-2.75,3.18-8.27Zm7.57,3.45v-6.98h-3.18c.16,1.1,.24,2.28,.24,3.53s-.08,2.39-.2,3.45h3.14Zm12.08-19.14V55.82h-4.9V19.7h4.9Z"/><path class="b" d="M92.72,39.39c-5.57,0-9.8-3.69-9.8-8.82s4.23-8.86,9.8-8.86,9.76,3.73,9.76,8.86-4.24,8.82-9.76,8.82Zm-5.73,3.1h24.08v13.41h-5.18v-9.25h-18.9v-4.16Zm5.73-7.45c2.71,0,4.74-1.69,4.74-4.47s-2.04-4.47-4.74-4.47-4.75,1.65-4.75,4.47,2,4.47,4.75,4.47Zm18.35-6.39v3.61h4.63v4.24h-4.63v4.55h-5.18V19.74h5.18v4.71h4.63v4.19h-4.63Z"/><path class="b" d="M137.62,40.25v2.67c6.2,.51,9.88,2.74,9.88,6.43,0,4.16-4.74,6.55-12.55,6.55s-12.51-2.39-12.51-6.55c0-3.72,3.73-5.96,10-6.47v-2.63h-13.72v-4.12h32.63v4.12h-13.72Zm-17.49-9.53c6.71-.59,10.23-2.94,11.14-5.37h-9.57v-4.12h26.7v4.12h-9.61c.9,2.43,4.43,4.78,11.18,5.37l-1.8,4c-6.78-.59-11.21-3.14-13.14-6.55-1.92,3.41-6.35,5.96-13.18,6.55l-1.73-4Zm14.82,16c-4.82,0-7.29,.78-7.29,2.63s2.47,2.59,7.29,2.59,7.29-.78,7.29-2.59-2.47-2.63-7.29-2.63Z"/></g></svg>